<mxfile host="app.diagrams.net" agent="Mozilla/5.0 (Windows NT 10.0; Win64; x64) AppleWebKit/537.36 (KHTML, like Gecko) Chrome/129.0.0.0 Safari/537.36" version="24.8.0">
  <diagram id="C5RBs43oDa-KdzZeNtuy" name="Page-1">
    <mxGraphModel dx="1687" dy="2087" grid="1" gridSize="10" guides="1" tooltips="1" connect="1" arrows="1" fold="1" page="1" pageScale="1" pageWidth="827" pageHeight="1169" math="0" shadow="0">
      <root>
        <mxCell id="WIyWlLk6GJQsqaUBKTNV-0" />
        <mxCell id="WIyWlLk6GJQsqaUBKTNV-1" parent="WIyWlLk6GJQsqaUBKTNV-0" />
        <mxCell id="4DByhIG9cWq-GMWMEozb-36" style="edgeStyle=orthogonalEdgeStyle;rounded=0;orthogonalLoop=1;jettySize=auto;html=1;entryX=0;entryY=0.5;entryDx=0;entryDy=0;" edge="1" parent="WIyWlLk6GJQsqaUBKTNV-1" source="4DByhIG9cWq-GMWMEozb-0" target="4DByhIG9cWq-GMWMEozb-7">
          <mxGeometry relative="1" as="geometry" />
        </mxCell>
        <mxCell id="4DByhIG9cWq-GMWMEozb-47" style="edgeStyle=orthogonalEdgeStyle;rounded=0;orthogonalLoop=1;jettySize=auto;html=1;" edge="1" parent="WIyWlLk6GJQsqaUBKTNV-1" source="4DByhIG9cWq-GMWMEozb-0" target="4DByhIG9cWq-GMWMEozb-10">
          <mxGeometry relative="1" as="geometry" />
        </mxCell>
        <mxCell id="4DByhIG9cWq-GMWMEozb-0" value="Thông tin" style="swimlane;whiteSpace=wrap;html=1;" vertex="1" parent="WIyWlLk6GJQsqaUBKTNV-1">
          <mxGeometry x="50" y="130" width="200" height="200" as="geometry" />
        </mxCell>
        <mxCell id="4DByhIG9cWq-GMWMEozb-1" value="+ HoTen: string" style="text;html=1;align=center;verticalAlign=middle;resizable=0;points=[];autosize=1;strokeColor=none;fillColor=none;" vertex="1" parent="4DByhIG9cWq-GMWMEozb-0">
          <mxGeometry y="20" width="100" height="30" as="geometry" />
        </mxCell>
        <mxCell id="4DByhIG9cWq-GMWMEozb-2" value="# TenDangNhap: string" style="text;html=1;align=center;verticalAlign=middle;resizable=0;points=[];autosize=1;strokeColor=none;fillColor=none;" vertex="1" parent="4DByhIG9cWq-GMWMEozb-0">
          <mxGeometry x="-10" y="40" width="150" height="30" as="geometry" />
        </mxCell>
        <mxCell id="4DByhIG9cWq-GMWMEozb-3" value="# MatKhau: string" style="text;html=1;align=center;verticalAlign=middle;resizable=0;points=[];autosize=1;strokeColor=none;fillColor=none;" vertex="1" parent="4DByhIG9cWq-GMWMEozb-0">
          <mxGeometry x="-10" y="60" width="120" height="30" as="geometry" />
        </mxCell>
        <mxCell id="4DByhIG9cWq-GMWMEozb-4" value="# NgaySinh: date" style="text;html=1;align=center;verticalAlign=middle;resizable=0;points=[];autosize=1;strokeColor=none;fillColor=none;" vertex="1" parent="4DByhIG9cWq-GMWMEozb-0">
          <mxGeometry x="-10" y="80" width="120" height="30" as="geometry" />
        </mxCell>
        <mxCell id="4DByhIG9cWq-GMWMEozb-5" value="#SDT: string" style="text;html=1;align=center;verticalAlign=middle;resizable=0;points=[];autosize=1;strokeColor=none;fillColor=none;" vertex="1" parent="4DByhIG9cWq-GMWMEozb-0">
          <mxGeometry x="-5" y="100" width="90" height="30" as="geometry" />
        </mxCell>
        <mxCell id="4DByhIG9cWq-GMWMEozb-6" value="#Email: string" style="text;html=1;align=center;verticalAlign=middle;resizable=0;points=[];autosize=1;strokeColor=none;fillColor=none;" vertex="1" parent="4DByhIG9cWq-GMWMEozb-0">
          <mxGeometry x="-10" y="120" width="100" height="30" as="geometry" />
        </mxCell>
        <mxCell id="4DByhIG9cWq-GMWMEozb-7" value="Sinh Viên" style="swimlane;whiteSpace=wrap;html=1;" vertex="1" parent="WIyWlLk6GJQsqaUBKTNV-1">
          <mxGeometry x="130" y="-140" width="200" height="200" as="geometry" />
        </mxCell>
        <mxCell id="4DByhIG9cWq-GMWMEozb-8" value="+ MaSV: int" style="text;html=1;align=center;verticalAlign=middle;resizable=0;points=[];autosize=1;strokeColor=none;fillColor=none;" vertex="1" parent="4DByhIG9cWq-GMWMEozb-7">
          <mxGeometry y="30" width="90" height="30" as="geometry" />
        </mxCell>
        <mxCell id="4DByhIG9cWq-GMWMEozb-10" value="Giảng Viên" style="swimlane;whiteSpace=wrap;html=1;" vertex="1" parent="WIyWlLk6GJQsqaUBKTNV-1">
          <mxGeometry x="320" y="140" width="200" height="200" as="geometry" />
        </mxCell>
        <mxCell id="4DByhIG9cWq-GMWMEozb-11" value="+ MaGV: int" style="text;html=1;align=center;verticalAlign=middle;resizable=0;points=[];autosize=1;strokeColor=none;fillColor=none;" vertex="1" parent="4DByhIG9cWq-GMWMEozb-10">
          <mxGeometry y="30" width="90" height="30" as="geometry" />
        </mxCell>
        <mxCell id="4DByhIG9cWq-GMWMEozb-39" style="edgeStyle=orthogonalEdgeStyle;rounded=0;orthogonalLoop=1;jettySize=auto;html=1;" edge="1" parent="WIyWlLk6GJQsqaUBKTNV-1" source="4DByhIG9cWq-GMWMEozb-12">
          <mxGeometry relative="1" as="geometry">
            <mxPoint x="920" y="240" as="targetPoint" />
          </mxGeometry>
        </mxCell>
        <mxCell id="4DByhIG9cWq-GMWMEozb-12" value="Học Phần" style="swimlane;whiteSpace=wrap;html=1;" vertex="1" parent="WIyWlLk6GJQsqaUBKTNV-1">
          <mxGeometry x="840" y="300" width="200" height="200" as="geometry" />
        </mxCell>
        <mxCell id="4DByhIG9cWq-GMWMEozb-14" value="+ TenHP: string" style="text;html=1;align=center;verticalAlign=middle;resizable=0;points=[];autosize=1;strokeColor=none;fillColor=none;" vertex="1" parent="4DByhIG9cWq-GMWMEozb-12">
          <mxGeometry x="5" y="58" width="110" height="30" as="geometry" />
        </mxCell>
        <mxCell id="4DByhIG9cWq-GMWMEozb-13" value="+ MaHP: string" style="text;html=1;align=center;verticalAlign=middle;resizable=0;points=[];autosize=1;strokeColor=none;fillColor=none;" vertex="1" parent="4DByhIG9cWq-GMWMEozb-12">
          <mxGeometry x="10" y="90" width="100" height="30" as="geometry" />
        </mxCell>
        <mxCell id="4DByhIG9cWq-GMWMEozb-40" style="edgeStyle=orthogonalEdgeStyle;rounded=0;orthogonalLoop=1;jettySize=auto;html=1;entryX=0.5;entryY=0;entryDx=0;entryDy=0;" edge="1" parent="WIyWlLk6GJQsqaUBKTNV-1" source="4DByhIG9cWq-GMWMEozb-15" target="4DByhIG9cWq-GMWMEozb-22">
          <mxGeometry relative="1" as="geometry" />
        </mxCell>
        <mxCell id="4DByhIG9cWq-GMWMEozb-15" value="Lớp Học Phần" style="swimlane;whiteSpace=wrap;html=1;" vertex="1" parent="WIyWlLk6GJQsqaUBKTNV-1">
          <mxGeometry x="840" y="40" width="200" height="200" as="geometry" />
        </mxCell>
        <mxCell id="4DByhIG9cWq-GMWMEozb-16" value="+ MaLop: int" style="text;html=1;align=center;verticalAlign=middle;resizable=0;points=[];autosize=1;strokeColor=none;fillColor=none;" vertex="1" parent="4DByhIG9cWq-GMWMEozb-15">
          <mxGeometry y="20" width="90" height="30" as="geometry" />
        </mxCell>
        <mxCell id="4DByhIG9cWq-GMWMEozb-17" value="+ TenLop: string" style="text;html=1;align=center;verticalAlign=middle;resizable=0;points=[];autosize=1;strokeColor=none;fillColor=none;" vertex="1" parent="4DByhIG9cWq-GMWMEozb-15">
          <mxGeometry x="-1" y="50" width="110" height="30" as="geometry" />
        </mxCell>
        <mxCell id="4DByhIG9cWq-GMWMEozb-18" value="+ NamHoc: int" style="text;html=1;align=center;verticalAlign=middle;resizable=0;points=[];autosize=1;strokeColor=none;fillColor=none;" vertex="1" parent="4DByhIG9cWq-GMWMEozb-15">
          <mxGeometry x="-1" y="100" width="100" height="30" as="geometry" />
        </mxCell>
        <mxCell id="4DByhIG9cWq-GMWMEozb-19" value="- HocKi: int" style="text;html=1;align=center;verticalAlign=middle;resizable=0;points=[];autosize=1;strokeColor=none;fillColor=none;" vertex="1" parent="4DByhIG9cWq-GMWMEozb-15">
          <mxGeometry x="5" y="130" width="80" height="30" as="geometry" />
        </mxCell>
        <mxCell id="4DByhIG9cWq-GMWMEozb-20" value="+ MaGV: int" style="text;html=1;align=center;verticalAlign=middle;resizable=0;points=[];autosize=1;strokeColor=none;fillColor=none;" vertex="1" parent="4DByhIG9cWq-GMWMEozb-15">
          <mxGeometry x="-1" y="80" width="90" height="30" as="geometry" />
        </mxCell>
        <mxCell id="4DByhIG9cWq-GMWMEozb-21" value="+ HocPhan: string" style="text;html=1;align=center;verticalAlign=middle;resizable=0;points=[];autosize=1;strokeColor=none;fillColor=none;" vertex="1" parent="4DByhIG9cWq-GMWMEozb-15">
          <mxGeometry x="-6" y="160" width="120" height="30" as="geometry" />
        </mxCell>
        <mxCell id="4DByhIG9cWq-GMWMEozb-41" style="edgeStyle=orthogonalEdgeStyle;rounded=0;orthogonalLoop=1;jettySize=auto;html=1;" edge="1" parent="WIyWlLk6GJQsqaUBKTNV-1" source="4DByhIG9cWq-GMWMEozb-22" target="4DByhIG9cWq-GMWMEozb-30">
          <mxGeometry relative="1" as="geometry" />
        </mxCell>
        <mxCell id="4DByhIG9cWq-GMWMEozb-22" value="Buổi Học" style="swimlane;whiteSpace=wrap;html=1;" vertex="1" parent="WIyWlLk6GJQsqaUBKTNV-1">
          <mxGeometry x="680" y="-220" width="200" height="235" as="geometry" />
        </mxCell>
        <mxCell id="4DByhIG9cWq-GMWMEozb-23" value="+ MaBuoihoc: int" style="text;html=1;align=center;verticalAlign=middle;resizable=0;points=[];autosize=1;strokeColor=none;fillColor=none;" vertex="1" parent="4DByhIG9cWq-GMWMEozb-22">
          <mxGeometry y="38" width="110" height="30" as="geometry" />
        </mxCell>
        <mxCell id="4DByhIG9cWq-GMWMEozb-24" value="+ MaLop: int" style="text;html=1;align=center;verticalAlign=middle;resizable=0;points=[];autosize=1;strokeColor=none;fillColor=none;" vertex="1" parent="4DByhIG9cWq-GMWMEozb-22">
          <mxGeometry y="65" width="90" height="30" as="geometry" />
        </mxCell>
        <mxCell id="4DByhIG9cWq-GMWMEozb-26" value="+ NgayHoc: date&amp;nbsp;" style="text;html=1;align=center;verticalAlign=middle;resizable=0;points=[];autosize=1;strokeColor=none;fillColor=none;" vertex="1" parent="4DByhIG9cWq-GMWMEozb-22">
          <mxGeometry x="-5" y="95" width="120" height="30" as="geometry" />
        </mxCell>
        <mxCell id="4DByhIG9cWq-GMWMEozb-27" value="+ TietBatDau: int" style="text;html=1;align=center;verticalAlign=middle;resizable=0;points=[];autosize=1;strokeColor=none;fillColor=none;" vertex="1" parent="4DByhIG9cWq-GMWMEozb-22">
          <mxGeometry y="125" width="110" height="30" as="geometry" />
        </mxCell>
        <mxCell id="4DByhIG9cWq-GMWMEozb-28" value="+ TietKetThuc: int" style="text;html=1;align=center;verticalAlign=middle;resizable=0;points=[];autosize=1;strokeColor=none;fillColor=none;" vertex="1" parent="4DByhIG9cWq-GMWMEozb-22">
          <mxGeometry y="155" width="120" height="30" as="geometry" />
        </mxCell>
        <mxCell id="4DByhIG9cWq-GMWMEozb-29" value="+PhongHoc: string" style="text;html=1;align=center;verticalAlign=middle;resizable=0;points=[];autosize=1;strokeColor=none;fillColor=none;" vertex="1" parent="4DByhIG9cWq-GMWMEozb-22">
          <mxGeometry x="-5" y="185" width="120" height="30" as="geometry" />
        </mxCell>
        <mxCell id="4DByhIG9cWq-GMWMEozb-30" value="Điểm danh" style="swimlane;whiteSpace=wrap;html=1;" vertex="1" parent="WIyWlLk6GJQsqaUBKTNV-1">
          <mxGeometry x="590" y="180" width="200" height="200" as="geometry" />
        </mxCell>
        <mxCell id="4DByhIG9cWq-GMWMEozb-31" value="+ MaDiemDanh: int" style="text;html=1;align=center;verticalAlign=middle;resizable=0;points=[];autosize=1;strokeColor=none;fillColor=none;" vertex="1" parent="4DByhIG9cWq-GMWMEozb-30">
          <mxGeometry x="-10" y="38" width="130" height="30" as="geometry" />
        </mxCell>
        <mxCell id="4DByhIG9cWq-GMWMEozb-32" value="+ MaBuoiHoc: int" style="text;html=1;align=center;verticalAlign=middle;resizable=0;points=[];autosize=1;strokeColor=none;fillColor=none;" vertex="1" parent="4DByhIG9cWq-GMWMEozb-30">
          <mxGeometry x="-10" y="68" width="120" height="30" as="geometry" />
        </mxCell>
        <mxCell id="4DByhIG9cWq-GMWMEozb-33" value="+ MaSV: int" style="text;html=1;align=center;verticalAlign=middle;resizable=0;points=[];autosize=1;strokeColor=none;fillColor=none;" vertex="1" parent="4DByhIG9cWq-GMWMEozb-30">
          <mxGeometry x="-10" y="98" width="90" height="30" as="geometry" />
        </mxCell>
        <mxCell id="4DByhIG9cWq-GMWMEozb-34" value="- GioDiemDanh: datetime" style="text;html=1;align=center;verticalAlign=middle;resizable=0;points=[];autosize=1;strokeColor=none;fillColor=none;" vertex="1" parent="4DByhIG9cWq-GMWMEozb-30">
          <mxGeometry x="-10" y="128" width="160" height="30" as="geometry" />
        </mxCell>
        <mxCell id="4DByhIG9cWq-GMWMEozb-35" value="+ TrangThai: string" style="text;html=1;align=center;verticalAlign=middle;resizable=0;points=[];autosize=1;strokeColor=none;fillColor=none;" vertex="1" parent="4DByhIG9cWq-GMWMEozb-30">
          <mxGeometry x="-5" y="158" width="120" height="30" as="geometry" />
        </mxCell>
        <mxCell id="4DByhIG9cWq-GMWMEozb-42" style="edgeStyle=orthogonalEdgeStyle;rounded=0;orthogonalLoop=1;jettySize=auto;html=1;entryX=0.344;entryY=0.018;entryDx=0;entryDy=0;entryPerimeter=0;" edge="1" parent="WIyWlLk6GJQsqaUBKTNV-1" source="4DByhIG9cWq-GMWMEozb-7" target="4DByhIG9cWq-GMWMEozb-30">
          <mxGeometry relative="1" as="geometry" />
        </mxCell>
      </root>
    </mxGraphModel>
  </diagram>
</mxfile>
